# xmcd
#
# Track frame offsets:
#	150
#	13008
#	24900
#	37942
#	58314
#	69272
#	80235
#	95041
#	105557
#	120156
#	133497
#	145029
#	155379
#	169294
#	182143
#	193087
#	204750
#	218114
#	232824
#	243371
#	255503
#	267154
#	281884
#	293016
#	302951
#
# Disc length: 4208 seconds
#
# Revision: 0
# Processed by: cddbd v1.5.2PL0 Copyright (c) Steve Scherf et al.
# Submitted via: dBpowerAMP V4.0
#
DISCID=66106e19
DTITLE=Blues - Greatest hits blues - CD2
DYEAR=2009
DGENRE=Blues
TTITLE0=B B King - Every day i have the Blues
TTITLE1=Ray Charles - Roll with me baby
TTITLE2=B B King - Boogie Woogie Woman
TTITLE3=Big Maybelle - Blues Earlly
TTITLE4=Johny Guitar Watson - No I can t 
TTITLE5=T-Bone Walker - I m about to loose my mind
TTITLE6=Bo Diddley - I am bad
TTITLE7=John Lee Hooker - Baby Please dont go
TTITLE8=Johnny Fuller - Hard times
TTITLE9=T-Bone Walker - You dont love me
TTITLE10=Johny Guitar Watson - Thinking
TTITLE11=Ray Charles - It's alright
TTITLE12=T-Bone Walker - Get these blues out of me
TTITLE13=Muddy Waters - I Just wonna make love to you
TTITLE14=Saunders King - Quit hanging around me
TTITLE15=Bobby Blue Band - You've got bad intentions
TTITLE16=Muddy Waters - Manish boy
TTITLE17=Big Joe - My Girl is  jockey
TTITLE18=Dixie Blues Boys - My baby let me down
TTITLE19=Ray Charles - Nobody cares
TTITLE20=James Brown - That dood it
TTITLE21=Johnny Moores Three Blazers - Drifting Blues
TTITLE22=James Brown - Let's make it
TTITLE23=Bo Diddley - Hey Bo Didley
TTITLE24=John Lee Hooker - Leave my wife alone
EXTD=
EXTT0=
EXTT1=
EXTT2=
EXTT3=
EXTT4=
EXTT5=
EXTT6=
EXTT7=
EXTT8=
EXTT9=
EXTT10=
EXTT11=
EXTT12=
EXTT13=
EXTT14=
EXTT15=
EXTT16=
EXTT17=
EXTT18=
EXTT19=
EXTT20=
EXTT21=
EXTT22=
EXTT23=
EXTT24=
PLAYORDER=
